<?xml version="1.0" encoding="UTF-8" standalone="no"?>
<!-- Created with Inkscape (http://www.inkscape.org/) -->

<svg
   xmlns:dc="http://purl.org/dc/elements/1.1/"
   xmlns:cc="http://creativecommons.org/ns#"
   xmlns:rdf="http://www.w3.org/1999/02/22-rdf-syntax-ns#"
   xmlns:svg="http://www.w3.org/2000/svg"
   xmlns="http://www.w3.org/2000/svg"
   xmlns:sodipodi="http://sodipodi.sourceforge.net/DTD/sodipodi-0.dtd"
   xmlns:inkscape="http://www.inkscape.org/namespaces/inkscape"
   width="640"
   height="1136"
   viewBox="0 0 169.33333 300.56668"
   version="1.1"
   id="svg8"
   inkscape:version="0.92.3 (2405546, 2018-03-11)"
   sodipodi:docname="dejcom_iphone_5s_wallpaper.svg"
   inkscape:export-filename="/home/netpro/Documents/g-designs/dej-com/dejcom_iphone_5s_wallpaper.png"
   inkscape:export-xdpi="150"
   inkscape:export-ydpi="150">
  <defs
     id="defs2">
    <marker
       inkscape:isstock="true"
       style="overflow:visible;"
       id="Arrow2Mend"
       refX="0.0"
       refY="0.0"
       orient="auto"
       inkscape:stockid="Arrow2Mend">
      <path
         transform="scale(0.6) rotate(180) translate(0,0)"
         d="M 8.7185878,4.0337352 L -2.2072895,0.016013256 L 8.7185884,-4.0017078 C 6.9730900,-1.6296469 6.9831476,1.6157441 8.7185878,4.0337352 z "
         style="fill-rule:evenodd;stroke-width:0.625;stroke-linejoin:round;stroke:#000000;stroke-opacity:1;fill:#000000;fill-opacity:1"
         id="path973" />
    </marker>
    <marker
       inkscape:isstock="true"
       style="overflow:visible;"
       id="Arrow1Send"
       refX="0.0"
       refY="0.0"
       orient="auto"
       inkscape:stockid="Arrow1Send">
      <path
         transform="scale(0.2) rotate(180) translate(6,0)"
         style="fill-rule:evenodd;stroke:#000000;stroke-width:1pt;stroke-opacity:1;fill:#000000;fill-opacity:1"
         d="M 0.0,0.0 L 5.0,-5.0 L -12.5,0.0 L 5.0,5.0 L 0.0,0.0 z "
         id="path961" />
    </marker>
    <marker
       inkscape:isstock="true"
       style="overflow:visible"
       id="Arrow2Mstart"
       refX="0.0"
       refY="0.0"
       orient="auto"
       inkscape:stockid="Arrow2Mstart">
      <path
         transform="scale(0.6) translate(0,0)"
         d="M 8.7185878,4.0337352 L -2.2072895,0.016013256 L 8.7185884,-4.0017078 C 6.9730900,-1.6296469 6.9831476,1.6157441 8.7185878,4.0337352 z "
         style="fill-rule:evenodd;stroke-width:0.625;stroke-linejoin:round;stroke:#000000;stroke-opacity:1;fill:#000000;fill-opacity:1"
         id="path970" />
    </marker>
    <marker
       inkscape:isstock="true"
       style="overflow:visible"
       id="Arrow1Sstart"
       refX="0.0"
       refY="0.0"
       orient="auto"
       inkscape:stockid="Arrow1Sstart">
      <path
         transform="scale(0.2) translate(6,0)"
         style="fill-rule:evenodd;stroke:#000000;stroke-width:1pt;stroke-opacity:1;fill:#000000;fill-opacity:1"
         d="M 0.0,0.0 L 5.0,-5.0 L -12.5,0.0 L 5.0,5.0 L 0.0,0.0 z "
         id="path958" />
    </marker>
  </defs>
  <sodipodi:namedview
     id="base"
     pagecolor="#ffffff"
     bordercolor="#666666"
     borderopacity="1.0"
     inkscape:pageopacity="0.0"
     inkscape:pageshadow="2"
     inkscape:zoom="0.49497475"
     inkscape:cx="242.82184"
     inkscape:cy="578.63993"
     inkscape:document-units="mm"
     inkscape:current-layer="layer1"
     showgrid="false"
     units="px"
     inkscape:window-width="1233"
     inkscape:window-height="972"
     inkscape:window-x="47"
     inkscape:window-y="24"
     inkscape:window-maximized="1" />
  <metadata
     id="metadata5">
    <rdf:RDF>
      <cc:Work
         rdf:about="">
        <dc:format>image/svg+xml</dc:format>
        <dc:type
           rdf:resource="http://purl.org/dc/dcmitype/StillImage" />
        <dc:title></dc:title>
      </cc:Work>
    </rdf:RDF>
  </metadata>
  <g
     inkscape:label="Layer 1"
     inkscape:groupmode="layer"
     id="layer1"
     transform="translate(0,3.5666835)">
    <rect
       style="opacity:1;fill:#0fafe5;fill-opacity:0.98969072;stroke:none;stroke-width:0.19947518;stroke-miterlimit:4;stroke-dasharray:none;stroke-opacity:1"
       id="rect815"
       width="169.31525"
       height="300.54956"
       x="0.009043376"
       y="-3.5581305" />
    <g
       id="g1051"
       transform="translate(-20.476529,31.180525)">
      <rect
         y="73.076759"
         x="62.57711"
         height="84.918732"
         width="85.132172"
         id="rect1843"
         style="fill:none;fill-opacity:1;stroke:#ffffff;stroke-width:1.13382959;stroke-miterlimit:4;stroke-dasharray:none;stroke-opacity:1" />
      <text
         id="text4144-4-3-2"
         y="139.03008"
         x="69.728676"
         style="font-style:normal;font-weight:normal;font-size:3.9279201px;line-height:0%;font-family:sans-serif;letter-spacing:0px;word-spacing:0px;fill:#ffffff;fill-opacity:1;stroke:none;stroke-width:0.32732669px;stroke-linecap:butt;stroke-linejoin:miter;stroke-opacity:1"
         xml:space="preserve"><tspan
           style="font-style:normal;font-variant:normal;font-weight:normal;font-stretch:normal;font-size:15.6945715px;line-height:10;font-family:Gotham;-inkscape-font-specification:Gotham;letter-spacing:0.35424125px;fill:#ffffff;stroke-width:0.32732669px"
           y="139.03008"
           x="69.728676"
           id="tspan4146-7-2-4"
           sodipodi:role="line">DEJCOM</tspan></text>
      <text
         id="text4148-6-8-9"
         y="153.91208"
         x="68.946228"
         style="font-style:normal;font-weight:normal;font-size:4.05158043px;line-height:0%;font-family:sans-serif;letter-spacing:0px;word-spacing:0px;fill:#ffffff;fill-opacity:1;stroke:none;stroke-width:0.33763173px;stroke-linecap:butt;stroke-linejoin:miter;stroke-opacity:1"
         xml:space="preserve"><tspan
           style="font-style:normal;font-variant:normal;font-weight:normal;font-stretch:normal;font-size:13.89614773px;line-height:10;font-family:Gotham;-inkscape-font-specification:Gotham;letter-spacing:0.36539364px;fill:#ffffff;stroke-width:0.33763173px"
           y="153.91208"
           x="68.946228"
           id="tspan4150-8-5-4"
           sodipodi:role="line">SERVICES</tspan></text>
      <path
         inkscape:connector-curvature="0"
         id="path1829"
         d="m 69.851826,141.99008 c 70.431274,0 70.582734,0 70.582734,0"
         style="fill:#ffffff;stroke:#f4f4f4;stroke-width:0.10602557px;stroke-linecap:butt;stroke-linejoin:miter;stroke-opacity:1" />
      <g
         style="fill:#ffffff"
         transform="matrix(0.4224696,0,0,0.4224696,60.783884,34.421962)"
         id="g1782">
        <path
           style="font-style:normal;font-weight:normal;font-size:20.50918388px;line-height:0%;font-family:sans-serif;letter-spacing:0px;word-spacing:0px;fill:#ffffff;fill-opacity:1;stroke:none;stroke-width:1.7090987px;stroke-linecap:butt;stroke-linejoin:miter;stroke-opacity:1"
           d="m 31.492134,103.0755 c -4.922205,0 -6.614066,1.69169 -6.614066,6.46008 v 32.91116 H 55.33409 v -12.45298 h 12.613182 c 12.459329,0 17.842838,5.69128 17.842838,16.61242 v 22.15007 c 0,10.92114 -5.383509,16.61242 -17.842838,16.61242 H 55.33409 V 172.96581 H 24.878068 v 32.86053 c 0,4.76838 1.691861,6.46058 6.614066,6.46058 h 37.532077 c 30.302318,0 47.222439,-16.61235 47.222439,-43.0692 v -23.07301 c 0,-26.61067 -16.920121,-43.06921 -47.222439,-43.06921 z"
           id="text4136"
           inkscape:connector-curvature="0" />
        <text
           xml:space="preserve"
           style="font-style:normal;font-weight:normal;font-size:20.50918388px;line-height:0%;font-family:sans-serif;letter-spacing:0px;word-spacing:0px;fill:#ffffff;fill-opacity:1;stroke:none;stroke-width:1.7090987px;stroke-linecap:butt;stroke-linejoin:miter;stroke-opacity:1"
           x="87.097809"
           y="212.28677"
           id="text4140"><tspan
             sodipodi:role="line"
             id="tspan4142"
             x="87.097809"
             y="212.28677"
             style="font-style:normal;font-variant:normal;font-weight:normal;font-stretch:normal;font-size:153.81887817px;line-height:10;font-family:Panton;-inkscape-font-specification:Panton;fill:#ffffff;fill-opacity:1;stroke-width:1.7090987px">C</tspan></text>
      </g>
      <path
         inkscape:connector-curvature="0"
         id="path2345"
         d="m 104.15427,107.43176 c -0.35286,-0.0398 -0.85428,-0.15071 -1.20019,-0.2654 -0.41036,-0.13605 -1.04431,-0.44451 -1.40966,-0.68591 -0.7206,-0.47611 -1.38462,-1.16469 -1.827436,-1.89504 -0.75468,-1.2447 -1.0294,-2.73996 -0.76867,-4.18381 0.2678,-1.482964 1.100726,-2.825935 2.313146,-3.729573 0.11674,-0.08701 0.22135,-0.148903 0.23249,-0.137556 0.0291,0.02966 0.85381,1.460566 0.85196,1.478166 -8e-4,0.0081 -0.0803,0.07492 -0.17658,0.148528 -0.23596,0.18042 -0.60235,0.570021 -0.80816,0.859358 -1.05677,1.485657 -1.05654,3.421507 6.3e-4,4.922937 0.21885,0.31082 0.66422,0.75682 0.98239,0.98377 0.52369,0.37355 1.27979,0.68488 1.8369,0.75637 0.25238,0.0324 0.22752,-0.0672 0.22752,0.91119 0,0.47748 -0.009,0.86657 -0.0201,0.86464 -0.011,-0.002 -0.11644,-0.0144 -0.23422,-0.0277 z m 1.11086,-0.83839 v -0.86705 l 0.12714,-0.0177 c 0.26489,-0.0368 0.61094,-0.12171 0.87285,-0.21409 0.14931,-0.0527 0.28847,-0.0981 0.30925,-0.10093 0.0488,-0.007 0.89704,1.45303 0.86372,1.48635 -0.0474,0.0474 -0.61444,0.267 -0.91521,0.35443 -0.2868,0.0834 -0.78901,0.17857 -1.11722,0.21179 l -0.14053,0.0142 z m 2.92553,-0.18154 c -0.0117,-0.0179 -0.20898,-0.35692 -0.43844,-0.75333 l -0.4172,-0.72073 0.22983,-0.19177 c 0.25212,-0.21037 0.50701,-0.47341 0.64518,-0.66581 0.0822,-0.11443 0.0933,-0.12119 0.14466,-0.0878 0.0306,0.0199 0.36581,0.2144 0.74491,0.43229 0.37909,0.2179 0.68927,0.40872 0.68927,0.42404 0,0.0481 -0.36274,0.50668 -0.6005,0.75926 -0.21211,0.22532 -0.60187,0.56605 -0.86387,0.75518 -0.0822,0.0593 -0.11835,0.0725 -0.13384,0.0487 z m 1.28096,-2.75001 c -0.40269,-0.23359 -0.7371,-0.42966 -0.74315,-0.43571 -0.006,-0.006 0.0178,-0.0762 0.053,-0.1558 0.12165,-0.27506 0.22049,-0.63329 0.29653,-1.07468 l 0.0173,-0.10037 h 0.86924 0.86924 l -0.0125,0.0602 c -0.007,0.0331 -0.0204,0.14455 -0.03,0.2476 -0.0345,0.37035 -0.14013,0.82836 -0.29084,1.26119 -0.11183,0.3212 -0.24666,0.6266 -0.27551,0.62409 -0.0117,-0.001 -0.35066,-0.19296 -0.75334,-0.42655 z m -0.39119,-2.77235 c -0.0309,-0.24758 -0.14441,-0.67802 -0.24508,-0.929636 -0.0522,-0.130463 -0.0909,-0.240124 -0.086,-0.243693 0.0355,-0.02577 1.46878,-0.845628 1.47838,-0.845628 0.0436,0 0.31108,0.701282 0.40463,1.060956 0.0775,0.297961 0.17363,0.855391 0.17364,1.006851 l 1e-5,0.10037 h -0.85349 -0.85348 z m -5.10015,-3.705325 v -2.569698 h 0.85657 0.85656 v 2.569698 2.569697 h -0.85656 -0.85657 z m 4.12291,1.547992 c -0.18584,-0.226659 -0.52028,-0.546942 -0.6812,-0.652382 -0.0379,-0.02488 -0.069,-0.05489 -0.069,-0.06674 0,-0.02683 0.79939,-1.418864 0.84083,-1.4642 0.0803,-0.08785 1.04431,0.793407 1.42697,1.304523 0.10471,0.139859 0.18235,0.262531 0.17253,0.272599 -0.0244,0.02501 -1.45871,0.851825 -1.47615,0.850913 -0.008,-3.6e-4 -0.10395,-0.110523 -0.21399,-0.244716 z"
         style="fill:#17b2e7;fill-opacity:1;stroke-width:0.02676767" />
    </g>
  </g>
</svg>
