<?xml version="1.0" encoding="UTF-8" standalone="no"?>
<!-- Created with Inkscape (http://www.inkscape.org/) -->

<svg
   xmlns:dc="http://purl.org/dc/elements/1.1/"
   xmlns:cc="http://creativecommons.org/ns#"
   xmlns:rdf="http://www.w3.org/1999/02/22-rdf-syntax-ns#"
   xmlns:svg="http://www.w3.org/2000/svg"
   xmlns="http://www.w3.org/2000/svg"
   xmlns:sodipodi="http://sodipodi.sourceforge.net/DTD/sodipodi-0.dtd"
   xmlns:inkscape="http://www.inkscape.org/namespaces/inkscape"
   width="210mm"
   height="210mm"
   viewBox="0 0 210 210"
   version="1.1"
   id="svg925"
   inkscape:version="0.92.3 (unknown)"
   sodipodi:docname="final_logo.svg"
   inkscape:export-filename="/home/netpro/Documents/g-designs/dej-com/final_logo_processor.png"
   inkscape:export-xdpi="300.00882"
   inkscape:export-ydpi="300.00882">
  <defs
     id="defs919">
    <marker
       inkscape:stockid="Arrow2Mend"
       orient="auto"
       refY="0.0"
       refX="0.0"
       id="Arrow2Mend"
       style="overflow:visible;"
       inkscape:isstock="true">
      <path
         id="path973"
         style="fill-rule:evenodd;stroke-width:0.625;stroke-linejoin:round;stroke:#000000;stroke-opacity:1;fill:#000000;fill-opacity:1"
         d="M 8.7185878,4.0337352 L -2.2072895,0.016013256 L 8.7185884,-4.0017078 C 6.9730900,-1.6296469 6.9831476,1.6157441 8.7185878,4.0337352 z "
         transform="scale(0.6) rotate(180) translate(0,0)" />
    </marker>
    <marker
       inkscape:stockid="Arrow1Send"
       orient="auto"
       refY="0.0"
       refX="0.0"
       id="Arrow1Send"
       style="overflow:visible;"
       inkscape:isstock="true">
      <path
         id="path961"
         d="M 0.0,0.0 L 5.0,-5.0 L -12.5,0.0 L 5.0,5.0 L 0.0,0.0 z "
         style="fill-rule:evenodd;stroke:#000000;stroke-width:1pt;stroke-opacity:1;fill:#000000;fill-opacity:1"
         transform="scale(0.2) rotate(180) translate(6,0)" />
    </marker>
    <marker
       inkscape:stockid="Arrow2Mstart"
       orient="auto"
       refY="0.0"
       refX="0.0"
       id="Arrow2Mstart"
       style="overflow:visible"
       inkscape:isstock="true">
      <path
         id="path970"
         style="fill-rule:evenodd;stroke-width:0.625;stroke-linejoin:round;stroke:#000000;stroke-opacity:1;fill:#000000;fill-opacity:1"
         d="M 8.7185878,4.0337352 L -2.2072895,0.016013256 L 8.7185884,-4.0017078 C 6.9730900,-1.6296469 6.9831476,1.6157441 8.7185878,4.0337352 z "
         transform="scale(0.6) translate(0,0)" />
    </marker>
    <marker
       inkscape:stockid="Arrow1Sstart"
       orient="auto"
       refY="0.0"
       refX="0.0"
       id="Arrow1Sstart"
       style="overflow:visible"
       inkscape:isstock="true">
      <path
         id="path958"
         d="M 0.0,0.0 L 5.0,-5.0 L -12.5,0.0 L 5.0,5.0 L 0.0,0.0 z "
         style="fill-rule:evenodd;stroke:#000000;stroke-width:1pt;stroke-opacity:1;fill:#000000;fill-opacity:1"
         transform="scale(0.2) translate(6,0)" />
    </marker>
  </defs>
  <sodipodi:namedview
     id="base"
     pagecolor="#ffffff"
     bordercolor="#666666"
     borderopacity="1.0"
     inkscape:pageopacity="0.0"
     inkscape:pageshadow="2"
     inkscape:zoom="0.46554067"
     inkscape:cx="641.79109"
     inkscape:cy="472.34125"
     inkscape:document-units="mm"
     inkscape:current-layer="layer1"
     showgrid="false"
     inkscape:window-width="1280"
     inkscape:window-height="965"
     inkscape:window-x="0"
     inkscape:window-y="0"
     inkscape:window-maximized="1" />
  <metadata
     id="metadata922">
    <rdf:RDF>
      <cc:Work
         rdf:about="">
        <dc:format>image/svg+xml</dc:format>
        <dc:type
           rdf:resource="http://purl.org/dc/dcmitype/StillImage" />
        <dc:title />
      </cc:Work>
    </rdf:RDF>
  </metadata>
  <g
     inkscape:label="Layer 1"
     inkscape:groupmode="layer"
     id="layer1"
     transform="translate(0,-87)">
    <rect
       style="fill:#ffffff;fill-opacity:1;stroke:none;stroke-width:15.46041393;stroke-miterlimit:4;stroke-dasharray:none;stroke-opacity:1"
       id="rect1837"
       width="209.76564"
       height="209.80954"
       x="0.022928083"
       y="87.068626" />
    <rect
       style="fill:none;fill-opacity:1;stroke:#00aae4;stroke-width:2.68381333;stroke-miterlimit:4;stroke-dasharray:none;stroke-opacity:1"
       id="rect1843"
       width="201.51076"
       height="201.00554"
       x="4.2446213"
       y="91.497231" />
    <g
       id="g847"
       transform="matrix(0.94853353,0,0,0.94853353,5.4039791,39.229717)">
      <text
         id="text4144-4-3-2"
         y="219.68784"
         x="16.624233"
         style="font-style:normal;font-weight:normal;font-size:9.80199528px;line-height:0%;font-family:sans-serif;letter-spacing:0px;word-spacing:0px;fill:#000000;fill-opacity:1;stroke:none;stroke-width:0.81683296px;stroke-linecap:butt;stroke-linejoin:miter;stroke-opacity:1"
         xml:space="preserve"><tspan
           style="font-style:normal;font-variant:normal;font-weight:normal;font-stretch:normal;font-size:39.16528702px;line-height:10;font-family:Gotham;-inkscape-font-specification:Gotham;letter-spacing:0.88399738px;stroke-width:0.81683296px"
           y="219.68784"
           x="16.624233"
           id="tspan4146-7-2-4"
           sodipodi:role="line">DEJCOM</tspan></text>
      <text
         id="text4148-6-8-9"
         y="256.82538"
         x="14.671666"
         style="font-style:normal;font-weight:normal;font-size:10.11058617px;line-height:0%;font-family:sans-serif;letter-spacing:0px;word-spacing:0px;fill:#000000;fill-opacity:1;stroke:none;stroke-width:0.84254885px;stroke-linecap:butt;stroke-linejoin:miter;stroke-opacity:1"
         xml:space="preserve"><tspan
           style="font-style:normal;font-variant:normal;font-weight:normal;font-stretch:normal;font-size:34.67737961px;line-height:10;font-family:Gotham;-inkscape-font-specification:Gotham;letter-spacing:0.9118278px;stroke-width:0.84254885px"
           y="256.82538"
           x="14.671666"
           id="tspan4150-8-5-4"
           sodipodi:role="line">SERVICES</tspan></text>
      <path
         inkscape:connector-curvature="0"
         id="path1829"
         d="m 16.93155,227.07441 c 175.75892,0 176.1369,0 176.1369,0"
         style="fill:none;stroke:#000000;stroke-width:0.26458332px;stroke-linecap:butt;stroke-linejoin:miter;stroke-opacity:1" />
    </g>
    <g
       id="g1782">
      <path
         inkscape:connector-curvature="0"
         id="text4136"
         d="m 31.492134,103.0755 c -4.922205,0 -6.614066,1.69169 -6.614066,6.46008 v 32.91116 H 55.33409 v -12.45298 h 12.613182 c 12.459329,0 17.842838,5.69128 17.842838,16.61242 v 22.15007 c 0,10.92114 -5.383509,16.61242 -17.842838,16.61242 H 55.33409 V 172.96581 H 24.878068 v 32.86053 c 0,4.76838 1.691861,6.46058 6.614066,6.46058 h 37.532077 c 30.302318,0 47.222439,-16.61235 47.222439,-43.0692 v -23.07301 c 0,-26.61067 -16.920121,-43.06921 -47.222439,-43.06921 z"
         style="font-style:normal;font-weight:normal;font-size:20.50918388px;line-height:0%;font-family:sans-serif;letter-spacing:0px;word-spacing:0px;fill:#00aae4;fill-opacity:1;stroke:none;stroke-width:1.7090987px;stroke-linecap:butt;stroke-linejoin:miter;stroke-opacity:1" />
      <text
         id="text4140"
         y="212.28677"
         x="87.097809"
         style="font-style:normal;font-weight:normal;font-size:20.50918388px;line-height:0%;font-family:sans-serif;letter-spacing:0px;word-spacing:0px;fill:#00aae4;fill-opacity:1;stroke:none;stroke-width:1.7090987px;stroke-linecap:butt;stroke-linejoin:miter;stroke-opacity:1"
         xml:space="preserve"><tspan
           style="font-style:normal;font-variant:normal;font-weight:normal;font-stretch:normal;font-size:153.81887817px;line-height:10;font-family:Panton;-inkscape-font-specification:Panton;fill:#00aae4;fill-opacity:1;stroke-width:1.7090987px"
           y="212.28677"
           x="87.097809"
           id="tspan4142"
           sodipodi:role="line">C</tspan></text>
    </g>
    <text
       xml:space="preserve"
       style="font-style:normal;font-weight:normal;font-size:9.9404211px;line-height:0%;font-family:sans-serif;letter-spacing:0px;word-spacing:0px;fill:#ff0000;fill-opacity:0.2670157;stroke:none;stroke-width:0.82836848px;stroke-linecap:butt;stroke-linejoin:miter;stroke-opacity:1"
       x="-155.69347"
       y="227.82481"
       id="text4501-9-3-6"
       transform="rotate(-39.457474)"><tspan
         sodipodi:role="line"
         id="tspan4503-9-8-1"
         x="-155.69347"
         y="227.82481"
         style="font-style:italic;font-variant:normal;font-weight:bold;font-stretch:normal;font-size:51.14827728px;line-height:10;font-family:sans-serif;-inkscape-font-specification:'sans-serif Bold Italic';fill:#ff0000;fill-opacity:0.2670157;stroke-width:0.82836848px">SAMPLE</tspan></text>
    <path
       style="fill:#ffffff;stroke-width:0.16494428"
       d="m 94.282677,172.68127 c -0.242688,-0.14134 -0.288652,-0.41635 -0.288652,-1.72689 v -1.55878 h -0.483051 c -0.615837,0 -1.001448,-0.38561 -1.001448,-1.00145 v -0.48305 h -1.561172 c -1.374665,0 -1.581563,-0.0381 -1.731911,-0.31904 -0.220825,-0.41262 -0.218194,-0.43467 0.08845,-0.74131 0.19693,-0.19693 0.613007,-0.2592 1.731918,-0.2592 h 1.472716 v -0.65978 -0.65977 h -1.458939 c -1.228351,0 -1.504155,-0.05 -1.74506,-0.31617 -0.228262,-0.25223 -0.24894,-0.38566 -0.102233,-0.65978 0.166457,-0.31103 0.331929,-0.34361 1.745059,-0.34361 h 1.561172 v -0.74225 -0.74225 h -1.561172 c -1.392352,0 -1.580254,-0.0357 -1.737715,-0.32989 -0.125437,-0.23438 -0.125437,-0.42539 0,-0.65977 0.157461,-0.29422 0.345363,-0.32989 1.737715,-0.32989 h 1.561172 v -0.74225 -0.74225 h -1.561172 c -1.374665,0 -1.581563,-0.0381 -1.731911,-0.31905 -0.220825,-0.41261 -0.218194,-0.43466 0.08845,-0.74131 0.19693,-0.19693 0.613007,-0.25919 1.731918,-0.25919 h 1.472716 v -0.65978 -0.65978 h -1.458939 c -1.228351,0 -1.504155,-0.05 -1.74506,-0.31617 -0.228262,-0.25222 -0.24894,-0.38565 -0.102233,-0.65977 0.166457,-0.31103 0.331929,-0.34361 1.745059,-0.34361 h 1.561172 v -0.74225 -0.74225 h -1.561172 c -1.392352,0 -1.580254,-0.0357 -1.737715,-0.32989 -0.125437,-0.23438 -0.125437,-0.42539 0,-0.65978 0.157461,-0.29421 0.345363,-0.32988 1.737715,-0.32988 h 1.561172 v -0.74226 -0.74224 h -1.561172 c -1.374665,0 -1.581563,-0.0381 -1.731911,-0.31905 -0.220825,-0.41262 -0.218194,-0.43466 0.08845,-0.74131 0.19693,-0.19693 0.613007,-0.2592 1.731918,-0.2592 h 1.472716 v -0.65977 -0.65978 h -1.458939 c -1.228351,0 -1.504155,-0.05 -1.74506,-0.31617 -0.228262,-0.25223 -0.24894,-0.38565 -0.102233,-0.65978 0.166457,-0.31102 0.331929,-0.3436 1.745059,-0.3436 h 1.561172 v -0.48305 c 0,-0.61584 0.385611,-1.00145 1.001448,-1.00145 h 0.483051 v -1.56117 c 0,-1.41313 0.0326,-1.57861 0.343605,-1.74506 0.274127,-0.14671 0.407549,-0.12603 0.659782,0.10223 0.266196,0.2409 0.316163,0.51671 0.316163,1.74506 v 1.45894 h 0.659781 0.659775 v -1.47272 c 0,-1.11891 0.06228,-1.53499 0.259196,-1.73192 0.30665,-0.30664 0.328693,-0.30927 0.741311,-0.0885 0.280934,0.15035 0.319049,0.35725 0.319049,1.73192 v 1.56117 h 0.742246 0.742249 v -1.56117 c 0,-1.39236 0.0357,-1.58026 0.32989,-1.73772 0.234378,-0.12544 0.425388,-0.12544 0.659768,0 0.29422,0.15746 0.32989,0.34536 0.32989,1.73772 v 1.56117 h 0.74225 0.74225 v -1.56117 c 0,-1.41313 0.0326,-1.57861 0.34361,-1.74506 0.27412,-0.14671 0.40755,-0.12603 0.65977,0.10223 0.26621,0.2409 0.31617,0.51671 0.31617,1.74506 v 1.45894 h 0.65978 0.65978 v -1.47272 c 0,-1.11891 0.0623,-1.53499 0.2592,-1.73192 0.30665,-0.30664 0.32869,-0.30927 0.74131,-0.0885 0.28093,0.15035 0.31904,0.35725 0.31904,1.73192 v 1.56117 h 0.74225 0.74225 v -1.56117 c 0,-1.39236 0.0357,-1.58026 0.32989,-1.73772 0.23438,-0.12544 0.42539,-0.12544 0.65977,0 0.29422,0.15746 0.32989,0.34536 0.32989,1.73772 v 1.56117 h 0.74226 0.74224 v -1.56117 c 0,-1.41313 0.0326,-1.57861 0.34361,-1.74506 0.27412,-0.14671 0.40755,-0.12603 0.65978,0.10223 0.26619,0.2409 0.31617,0.51671 0.31617,1.74506 v 1.45894 h 0.65977 0.65978 v -1.47272 c 0,-1.11891 0.0623,-1.53499 0.2592,-1.73192 0.30664,-0.30664 0.32869,-0.30927 0.74131,-0.0885 0.28093,0.15035 0.31904,0.35725 0.31904,1.73192 v 1.56117 h 0.48305 c 0.61584,0 1.00145,0.38561 1.00145,1.00145 v 0.48305 h 1.56117 c 1.41313,0 1.57861,0.0326 1.74506,0.3436 0.14671,0.27413 0.12603,0.40755 -0.10223,0.65978 -0.2409,0.2662 -0.51671,0.31617 -1.74507,0.31617 h -1.45893 v 0.65978 0.65977 h 1.45893 c 1.22836,0 1.50417,0.05 1.74507,0.31617 0.22826,0.25223 0.24894,0.38566 0.10223,0.65978 -0.16645,0.31102 -0.33193,0.34361 -1.74506,0.34361 h -1.56117 v 0.74224 0.74226 h 1.56117 c 1.39236,0 1.58026,0.0357 1.73772,0.32988 0.12544,0.23439 0.12544,0.4254 0,0.65978 -0.15746,0.29422 -0.34536,0.32989 -1.73772,0.32989 h -1.56117 v 0.74225 0.74225 h 1.56117 c 1.41313,0 1.57861,0.0326 1.74506,0.34361 0.14671,0.27412 0.12603,0.40755 -0.10223,0.65977 -0.2409,0.26621 -0.51671,0.31617 -1.74507,0.31617 h -1.45893 v 0.65978 0.65978 h 1.45893 c 1.22836,0 1.50417,0.05 1.74507,0.31616 0.22826,0.25223 0.24894,0.38566 0.10223,0.65978 -0.16645,0.31103 -0.33193,0.34361 -1.74506,0.34361 h -1.56117 v 0.74225 0.74225 h 1.56117 c 1.39236,0 1.58026,0.0357 1.73772,0.32989 0.12544,0.23438 0.12544,0.42539 0,0.65977 -0.15746,0.29422 -0.34536,0.32989 -1.73772,0.32989 h -1.56117 v 0.74225 0.74225 h 1.56117 c 1.41313,0 1.57861,0.0326 1.74506,0.34361 0.14671,0.27412 0.12603,0.40755 -0.10223,0.65978 -0.2409,0.26619 -0.51671,0.31617 -1.74507,0.31617 h -1.45893 v 0.65977 0.65978 h 1.45893 c 1.22836,0 1.50417,0.05 1.74507,0.31617 0.22826,0.25223 0.24894,0.38565 0.10223,0.65977 -0.16645,0.31103 -0.33193,0.34361 -1.74506,0.34361 h -1.56117 v 0.48305 c 0,0.61584 -0.38561,1.00145 -1.00145,1.00145 h -0.48305 v 1.56117 c 0,1.41313 -0.0326,1.57861 -0.34361,1.74506 -0.27412,0.14671 -0.40754,0.12603 -0.65977,-0.10223 -0.2662,-0.2409 -0.31617,-0.51671 -0.31617,-1.74507 v -1.45893 h -0.65978 -0.65977 v 1.45893 c 0,1.22836 -0.05,1.50417 -0.31617,1.74507 -0.25223,0.22826 -0.38566,0.24894 -0.65978,0.10223 -0.31103,-0.16645 -0.34361,-0.33193 -0.34361,-1.74506 v -1.56117 h -0.74224 -0.74226 v 1.56117 c 0,1.39236 -0.0357,1.58026 -0.32989,1.73772 -0.23438,0.12544 -0.42539,0.12544 -0.65977,0 -0.29422,-0.15746 -0.32989,-0.34536 -0.32989,-1.73772 v -1.56117 h -0.74225 -0.74225 v 1.56117 c 0,1.41313 -0.0326,1.57861 -0.34361,1.74506 -0.27412,0.14671 -0.40755,0.12603 -0.65978,-0.10223 -0.26619,-0.2409 -0.31616,-0.51671 -0.31616,-1.74507 v -1.45893 h -0.65978 -0.65978 v 1.45893 c 0,1.22836 -0.05,1.50417 -0.31617,1.74507 -0.25222,0.22826 -0.38565,0.24894 -0.65977,0.10223 -0.31103,-0.16645 -0.34361,-0.33193 -0.34361,-1.74506 v -1.56117 h -0.74225 -0.74225 v 1.56117 c 0,1.39236 -0.0357,1.58026 -0.32989,1.73772 -0.23438,0.12544 -0.42539,0.12544 -0.659768,0 -0.29422,-0.15746 -0.32989,-0.34536 -0.32989,-1.73772 v -1.56117 h -0.742249 -0.742246 v 1.56117 c 0,1.41313 -0.0326,1.57861 -0.343612,1.74506 -0.27412,0.14671 -0.407549,0.12603 -0.659775,-0.10223 -0.266196,-0.2409 -0.316169,-0.51671 -0.316169,-1.74507 v -1.45893 h -0.659775 -0.659781 v 1.45893 c 0,1.20392 -0.05274,1.50666 -0.301638,1.73192 -0.349422,0.31622 -0.349198,0.3162 -0.72926,0.0948 z M 111.5488,165.0128 c 0.22757,-0.22757 0.2592,-1.12177 0.2592,-7.32824 0,-6.20648 -0.0316,-7.10067 -0.2592,-7.32824 -0.22757,-0.22757 -1.12176,-0.2592 -7.32824,-0.2592 -6.206467,0 -7.100657,0.0316 -7.328233,0.2592 -0.22757,0.22757 -0.259196,1.12176 -0.259196,7.32824 0,6.20647 0.03161,7.10067 0.259196,7.32824 0.227576,0.22757 1.121766,0.2592 7.328233,0.2592 6.20648,0 7.10067,-0.0316 7.32824,-0.2592 z m -13.431171,-7.32824 v -6.10294 h 6.102931 6.10294 v 6.10294 6.10294 h -6.10294 -6.102931 z"
       id="path2937"
       inkscape:connector-curvature="0" />
  </g>
</svg>
