<?xml version="1.0" encoding="UTF-8" standalone="no"?>
<!-- Created with Inkscape (http://www.inkscape.org/) -->

<svg
   xmlns:dc="http://purl.org/dc/elements/1.1/"
   xmlns:cc="http://creativecommons.org/ns#"
   xmlns:rdf="http://www.w3.org/1999/02/22-rdf-syntax-ns#"
   xmlns:svg="http://www.w3.org/2000/svg"
   xmlns="http://www.w3.org/2000/svg"
   xmlns:sodipodi="http://sodipodi.sourceforge.net/DTD/sodipodi-0.dtd"
   xmlns:inkscape="http://www.inkscape.org/namespaces/inkscape"
   width="210mm"
   height="210mm"
   viewBox="0 0 210 210"
   version="1.1"
   id="svg925"
   inkscape:version="0.92.3 (unknown)"
   sodipodi:docname="final_logo.svg"
   inkscape:export-filename="/home/netpro/Documents/g-designs/dej-com/final_logo_electricity.png"
   inkscape:export-xdpi="300.00882"
   inkscape:export-ydpi="300.00882">
  <defs
     id="defs919">
    <marker
       inkscape:stockid="Arrow2Mend"
       orient="auto"
       refY="0.0"
       refX="0.0"
       id="Arrow2Mend"
       style="overflow:visible;"
       inkscape:isstock="true">
      <path
         id="path973"
         style="fill-rule:evenodd;stroke-width:0.625;stroke-linejoin:round;stroke:#000000;stroke-opacity:1;fill:#000000;fill-opacity:1"
         d="M 8.7185878,4.0337352 L -2.2072895,0.016013256 L 8.7185884,-4.0017078 C 6.9730900,-1.6296469 6.9831476,1.6157441 8.7185878,4.0337352 z "
         transform="scale(0.6) rotate(180) translate(0,0)" />
    </marker>
    <marker
       inkscape:stockid="Arrow1Send"
       orient="auto"
       refY="0.0"
       refX="0.0"
       id="Arrow1Send"
       style="overflow:visible;"
       inkscape:isstock="true">
      <path
         id="path961"
         d="M 0.0,0.0 L 5.0,-5.0 L -12.5,0.0 L 5.0,5.0 L 0.0,0.0 z "
         style="fill-rule:evenodd;stroke:#000000;stroke-width:1pt;stroke-opacity:1;fill:#000000;fill-opacity:1"
         transform="scale(0.2) rotate(180) translate(6,0)" />
    </marker>
    <marker
       inkscape:stockid="Arrow2Mstart"
       orient="auto"
       refY="0.0"
       refX="0.0"
       id="Arrow2Mstart"
       style="overflow:visible"
       inkscape:isstock="true">
      <path
         id="path970"
         style="fill-rule:evenodd;stroke-width:0.625;stroke-linejoin:round;stroke:#000000;stroke-opacity:1;fill:#000000;fill-opacity:1"
         d="M 8.7185878,4.0337352 L -2.2072895,0.016013256 L 8.7185884,-4.0017078 C 6.9730900,-1.6296469 6.9831476,1.6157441 8.7185878,4.0337352 z "
         transform="scale(0.6) translate(0,0)" />
    </marker>
    <marker
       inkscape:stockid="Arrow1Sstart"
       orient="auto"
       refY="0.0"
       refX="0.0"
       id="Arrow1Sstart"
       style="overflow:visible"
       inkscape:isstock="true">
      <path
         id="path958"
         d="M 0.0,0.0 L 5.0,-5.0 L -12.5,0.0 L 5.0,5.0 L 0.0,0.0 z "
         style="fill-rule:evenodd;stroke:#000000;stroke-width:1pt;stroke-opacity:1;fill:#000000;fill-opacity:1"
         transform="scale(0.2) translate(6,0)" />
    </marker>
  </defs>
  <sodipodi:namedview
     id="base"
     pagecolor="#ffffff"
     bordercolor="#666666"
     borderopacity="1.0"
     inkscape:pageopacity="0.0"
     inkscape:pageshadow="2"
     inkscape:zoom="0.65837394"
     inkscape:cx="534.08982"
     inkscape:cy="331.06685"
     inkscape:document-units="mm"
     inkscape:current-layer="layer1"
     showgrid="false"
     inkscape:window-width="1280"
     inkscape:window-height="965"
     inkscape:window-x="0"
     inkscape:window-y="0"
     inkscape:window-maximized="1" />
  <metadata
     id="metadata922">
    <rdf:RDF>
      <cc:Work
         rdf:about="">
        <dc:format>image/svg+xml</dc:format>
        <dc:type
           rdf:resource="http://purl.org/dc/dcmitype/StillImage" />
        <dc:title />
      </cc:Work>
    </rdf:RDF>
  </metadata>
  <g
     inkscape:label="Layer 1"
     inkscape:groupmode="layer"
     id="layer1"
     transform="translate(0,-87)">
    <rect
       style="fill:#ffffff;fill-opacity:1;stroke:none;stroke-width:15.46041393;stroke-miterlimit:4;stroke-dasharray:none;stroke-opacity:1"
       id="rect1837"
       width="209.76564"
       height="209.80954"
       x="0.022928083"
       y="87.068626" />
    <rect
       style="fill:none;fill-opacity:1;stroke:#00aae4;stroke-width:2.68381333;stroke-miterlimit:4;stroke-dasharray:none;stroke-opacity:1"
       id="rect1843"
       width="201.51076"
       height="201.00554"
       x="4.2446213"
       y="91.497231" />
    <g
       id="g847"
       transform="matrix(0.94853353,0,0,0.94853353,5.4039791,39.229717)">
      <text
         id="text4144-4-3-2"
         y="219.68784"
         x="16.624233"
         style="font-style:normal;font-weight:normal;font-size:9.80199528px;line-height:0%;font-family:sans-serif;letter-spacing:0px;word-spacing:0px;fill:#000000;fill-opacity:1;stroke:none;stroke-width:0.81683296px;stroke-linecap:butt;stroke-linejoin:miter;stroke-opacity:1"
         xml:space="preserve"><tspan
           style="font-style:normal;font-variant:normal;font-weight:normal;font-stretch:normal;font-size:39.16528702px;line-height:10;font-family:Gotham;-inkscape-font-specification:Gotham;letter-spacing:0.88399738px;stroke-width:0.81683296px"
           y="219.68784"
           x="16.624233"
           id="tspan4146-7-2-4"
           sodipodi:role="line">DEJCOM</tspan></text>
      <text
         id="text4148-6-8-9"
         y="256.82538"
         x="14.671666"
         style="font-style:normal;font-weight:normal;font-size:10.11058617px;line-height:0%;font-family:sans-serif;letter-spacing:0px;word-spacing:0px;fill:#000000;fill-opacity:1;stroke:none;stroke-width:0.84254885px;stroke-linecap:butt;stroke-linejoin:miter;stroke-opacity:1"
         xml:space="preserve"><tspan
           style="font-style:normal;font-variant:normal;font-weight:normal;font-stretch:normal;font-size:34.67737961px;line-height:10;font-family:Gotham;-inkscape-font-specification:Gotham;letter-spacing:0.9118278px;stroke-width:0.84254885px"
           y="256.82538"
           x="14.671666"
           id="tspan4150-8-5-4"
           sodipodi:role="line">SERVICES</tspan></text>
      <path
         inkscape:connector-curvature="0"
         id="path1829"
         d="m 16.93155,227.07441 c 175.75892,0 176.1369,0 176.1369,0"
         style="fill:none;stroke:#000000;stroke-width:0.26458332px;stroke-linecap:butt;stroke-linejoin:miter;stroke-opacity:1" />
    </g>
    <g
       id="g1782">
      <path
         inkscape:connector-curvature="0"
         id="text4136"
         d="m 31.492134,103.0755 c -4.922205,0 -6.614066,1.69169 -6.614066,6.46008 v 32.91116 H 55.33409 v -12.45298 h 12.613182 c 12.459329,0 17.842838,5.69128 17.842838,16.61242 v 22.15007 c 0,10.92114 -5.383509,16.61242 -17.842838,16.61242 H 55.33409 V 172.96581 H 24.878068 v 32.86053 c 0,4.76838 1.691861,6.46058 6.614066,6.46058 h 37.532077 c 30.302318,0 47.222439,-16.61235 47.222439,-43.0692 v -23.07301 c 0,-26.61067 -16.920121,-43.06921 -47.222439,-43.06921 z"
         style="font-style:normal;font-weight:normal;font-size:20.50918388px;line-height:0%;font-family:sans-serif;letter-spacing:0px;word-spacing:0px;fill:#00aae4;fill-opacity:1;stroke:none;stroke-width:1.7090987px;stroke-linecap:butt;stroke-linejoin:miter;stroke-opacity:1" />
      <text
         id="text4140"
         y="212.28677"
         x="87.097809"
         style="font-style:normal;font-weight:normal;font-size:20.50918388px;line-height:0%;font-family:sans-serif;letter-spacing:0px;word-spacing:0px;fill:#00aae4;fill-opacity:1;stroke:none;stroke-width:1.7090987px;stroke-linecap:butt;stroke-linejoin:miter;stroke-opacity:1"
         xml:space="preserve"><tspan
           style="font-style:normal;font-variant:normal;font-weight:normal;font-stretch:normal;font-size:153.81887817px;line-height:10;font-family:Panton;-inkscape-font-specification:Panton;fill:#00aae4;fill-opacity:1;stroke-width:1.7090987px"
           y="212.28677"
           x="87.097809"
           id="tspan4142"
           sodipodi:role="line">C</tspan></text>
    </g>
    <text
       xml:space="preserve"
       style="font-style:normal;font-weight:normal;font-size:9.9404211px;line-height:0%;font-family:sans-serif;letter-spacing:0px;word-spacing:0px;fill:#ff0000;fill-opacity:0.2670157;stroke:none;stroke-width:0.82836848px;stroke-linecap:butt;stroke-linejoin:miter;stroke-opacity:1"
       x="-155.69347"
       y="227.82481"
       id="text4501-9-3-6"
       transform="rotate(-39.457474)"><tspan
         sodipodi:role="line"
         id="tspan4503-9-8-1"
         x="-155.69347"
         y="227.82481"
         style="font-style:italic;font-variant:normal;font-weight:bold;font-stretch:normal;font-size:51.14827728px;line-height:10;font-family:sans-serif;-inkscape-font-specification:'sans-serif Bold Italic';fill:#ff0000;fill-opacity:0.2670157;stroke-width:0.82836848px">SAMPLE</tspan></text>
    <path
       style="fill:#ffffff;stroke-width:0.06336"
       d="m 102.65919,172.81668 c -0.83521,-0.0943 -2.02209,-0.35673 -2.840889,-0.6282 -0.971337,-0.32204 -2.47191,-1.05218 -3.336704,-1.62357 -1.705684,-1.12697 -3.277434,-2.75687 -4.325617,-4.48563 -1.786362,-2.94625 -2.436622,-6.48558 -1.819457,-9.90322 0.633886,-3.51023 2.605467,-6.68909 5.475303,-8.82803 0.276311,-0.20595 0.523945,-0.35246 0.550294,-0.3256 0.06883,0.0702 2.021,3.45721 2.016634,3.49887 -0.0019,0.0191 -0.190091,0.17733 -0.417972,0.35157 -0.558524,0.42706 -1.425785,1.34926 -1.912946,2.03413 -2.501409,3.51659 -2.500871,8.09883 0.0015,11.65275 0.518006,0.73573 1.572234,1.79144 2.325341,2.32863 1.239594,0.8842 3.029303,1.62113 4.348003,1.79034 0.59739,0.0766 0.53856,-0.15897 0.53856,2.15683 0,1.13021 -0.0214,2.05119 -0.0475,2.04663 -0.0261,-0.004 -0.27561,-0.0341 -0.5544,-0.0655 z m 2.62945,-1.9845 v -2.05234 l 0.30096,-0.0418 c 0.62699,-0.0872 1.4461,-0.28808 2.06606,-0.50675 0.35341,-0.12465 0.68281,-0.23217 0.73199,-0.23891 0.11549,-0.0159 2.12333,3.43937 2.04446,3.51824 -0.11222,0.11222 -1.4544,0.632 -2.16633,0.83895 -0.67886,0.19732 -1.86761,0.42268 -2.6445,0.50131 l -0.33264,0.0336 z m 6.92483,-0.42971 c -0.0276,-0.0424 -0.49466,-0.84484 -1.0378,-1.78314 l -0.98752,-1.70601 0.54401,-0.45392 c 0.59678,-0.49796 1.2001,-1.12058 1.52716,-1.576 0.19451,-0.27085 0.22085,-0.28685 0.34241,-0.20792 0.0725,0.047 0.86589,0.5075 1.76323,1.02326 0.89733,0.51576 1.63152,0.96744 1.63152,1.00371 0,0.11375 -0.8586,1.19933 -1.4214,1.79719 -0.50206,0.53335 -1.42465,1.33986 -2.04481,1.78755 -0.19446,0.14038 -0.28013,0.17156 -0.3168,0.11528 z m 3.03208,-6.50937 c -0.95317,-0.55291 -1.74474,-1.01701 -1.75907,-1.03133 -0.0143,-0.0143 0.0422,-0.18028 0.12552,-0.36878 0.28795,-0.65109 0.52192,-1.49903 0.70192,-2.5438 l 0.041,-0.23759 h 2.05753 2.05753 l -0.0296,0.14255 c -0.0163,0.0784 -0.0482,0.34215 -0.071,0.58608 -0.0817,0.87664 -0.33171,1.96075 -0.68844,2.98529 -0.26471,0.76029 -0.58384,1.48317 -0.65213,1.47723 -0.0276,-0.003 -0.83003,-0.45674 -1.78318,-1.00965 z m -0.92597,-6.56224 c -0.0732,-0.58603 -0.34182,-1.6049 -0.58011,-2.20048 -0.12355,-0.30881 -0.21512,-0.56838 -0.20349,-0.57683 0.084,-0.061 3.47665,-2.00163 3.49939,-2.00163 0.10325,0 0.73633,1.65996 0.95776,2.51132 0.18344,0.70528 0.41099,2.02473 0.41101,2.38324 l 2e-5,0.23759 h -2.02023 -2.02021 z m -12.07222,-8.77063 v -6.08256 h 2.02752 2.02752 v 6.08256 6.08256 h -2.02752 -2.02752 z m 9.75908,3.66415 c -0.43991,-0.53651 -1.23153,-1.29463 -1.61243,-1.54421 -0.0898,-0.0589 -0.1633,-0.12993 -0.1633,-0.15797 0,-0.0635 1.89217,-3.3585 1.99027,-3.46581 0.19014,-0.20795 2.47192,1.87802 3.37769,3.08785 0.24784,0.33105 0.43162,0.62142 0.40838,0.64525 -0.0578,0.0592 -3.45282,2.0163 -3.49409,2.01414 -0.0181,-8.5e-4 -0.24607,-0.26161 -0.50652,-0.57925 z"
       id="path2345"
       inkscape:connector-curvature="0" />
  </g>
</svg>
