<?xml version="1.0" encoding="UTF-8" standalone="no"?>
<!-- Created with Inkscape (http://www.inkscape.org/) -->

<svg
   xmlns:dc="http://purl.org/dc/elements/1.1/"
   xmlns:cc="http://creativecommons.org/ns#"
   xmlns:rdf="http://www.w3.org/1999/02/22-rdf-syntax-ns#"
   xmlns:svg="http://www.w3.org/2000/svg"
   xmlns="http://www.w3.org/2000/svg"
   xmlns:sodipodi="http://sodipodi.sourceforge.net/DTD/sodipodi-0.dtd"
   xmlns:inkscape="http://www.inkscape.org/namespaces/inkscape"
   width="210mm"
   height="210mm"
   viewBox="0 0 210 210"
   version="1.1"
   id="svg925"
   inkscape:version="0.92.3 (unknown)"
   sodipodi:docname="final_logo.svg"
   inkscape:export-filename="/home/netpro/Documents/g-designs/dej-com/final_logo.png"
   inkscape:export-xdpi="300.00882"
   inkscape:export-ydpi="300.00882">
  <defs
     id="defs919">
    <marker
       inkscape:stockid="Arrow2Mend"
       orient="auto"
       refY="0.0"
       refX="0.0"
       id="Arrow2Mend"
       style="overflow:visible;"
       inkscape:isstock="true">
      <path
         id="path973"
         style="fill-rule:evenodd;stroke-width:0.625;stroke-linejoin:round;stroke:#000000;stroke-opacity:1;fill:#000000;fill-opacity:1"
         d="M 8.7185878,4.0337352 L -2.2072895,0.016013256 L 8.7185884,-4.0017078 C 6.9730900,-1.6296469 6.9831476,1.6157441 8.7185878,4.0337352 z "
         transform="scale(0.6) rotate(180) translate(0,0)" />
    </marker>
    <marker
       inkscape:stockid="Arrow1Send"
       orient="auto"
       refY="0.0"
       refX="0.0"
       id="Arrow1Send"
       style="overflow:visible;"
       inkscape:isstock="true">
      <path
         id="path961"
         d="M 0.0,0.0 L 5.0,-5.0 L -12.5,0.0 L 5.0,5.0 L 0.0,0.0 z "
         style="fill-rule:evenodd;stroke:#000000;stroke-width:1pt;stroke-opacity:1;fill:#000000;fill-opacity:1"
         transform="scale(0.2) rotate(180) translate(6,0)" />
    </marker>
    <marker
       inkscape:stockid="Arrow2Mstart"
       orient="auto"
       refY="0.0"
       refX="0.0"
       id="Arrow2Mstart"
       style="overflow:visible"
       inkscape:isstock="true">
      <path
         id="path970"
         style="fill-rule:evenodd;stroke-width:0.625;stroke-linejoin:round;stroke:#000000;stroke-opacity:1;fill:#000000;fill-opacity:1"
         d="M 8.7185878,4.0337352 L -2.2072895,0.016013256 L 8.7185884,-4.0017078 C 6.9730900,-1.6296469 6.9831476,1.6157441 8.7185878,4.0337352 z "
         transform="scale(0.6) translate(0,0)" />
    </marker>
    <marker
       inkscape:stockid="Arrow1Sstart"
       orient="auto"
       refY="0.0"
       refX="0.0"
       id="Arrow1Sstart"
       style="overflow:visible"
       inkscape:isstock="true">
      <path
         id="path958"
         d="M 0.0,0.0 L 5.0,-5.0 L -12.5,0.0 L 5.0,5.0 L 0.0,0.0 z "
         style="fill-rule:evenodd;stroke:#000000;stroke-width:1pt;stroke-opacity:1;fill:#000000;fill-opacity:1"
         transform="scale(0.2) translate(6,0)" />
    </marker>
  </defs>
  <sodipodi:namedview
     id="base"
     pagecolor="#ffffff"
     bordercolor="#666666"
     borderopacity="1.0"
     inkscape:pageopacity="0.0"
     inkscape:pageshadow="2"
     inkscape:zoom="1.3167479"
     inkscape:cx="459.46695"
     inkscape:cy="464.2468"
     inkscape:document-units="mm"
     inkscape:current-layer="layer1"
     showgrid="false"
     inkscape:window-width="1280"
     inkscape:window-height="965"
     inkscape:window-x="0"
     inkscape:window-y="0"
     inkscape:window-maximized="1" />
  <metadata
     id="metadata922">
    <rdf:RDF>
      <cc:Work
         rdf:about="">
        <dc:format>image/svg+xml</dc:format>
        <dc:type
           rdf:resource="http://purl.org/dc/dcmitype/StillImage" />
        <dc:title />
      </cc:Work>
    </rdf:RDF>
  </metadata>
  <g
     inkscape:label="Layer 1"
     inkscape:groupmode="layer"
     id="layer1"
     transform="translate(0,-87)">
    <rect
       style="fill:#ffffff;fill-opacity:1;stroke:none;stroke-width:15.46041393;stroke-miterlimit:4;stroke-dasharray:none;stroke-opacity:1"
       id="rect1837"
       width="209.76564"
       height="209.80954"
       x="0.022928083"
       y="87.068626" />
    <rect
       style="fill:none;fill-opacity:1;stroke:#00aae4;stroke-width:2.68381333;stroke-miterlimit:4;stroke-dasharray:none;stroke-opacity:1"
       id="rect1843"
       width="201.51076"
       height="201.00554"
       x="4.2446213"
       y="91.497231" />
    <text
       xml:space="preserve"
       style="font-style:normal;font-weight:normal;font-size:9.9404211px;line-height:0%;font-family:sans-serif;letter-spacing:0px;word-spacing:0px;fill:#ff0000;fill-opacity:0.2670157;stroke:none;stroke-width:0.82836848px;stroke-linecap:butt;stroke-linejoin:miter;stroke-opacity:1"
       x="-94.623222"
       y="412.8999"
       id="text4501-9-3-6"
       transform="rotate(-39.457474)"><tspan
         sodipodi:role="line"
         id="tspan4503-9-8-1"
         x="-94.623222"
         y="412.8999"
         style="font-style:italic;font-variant:normal;font-weight:bold;font-stretch:normal;font-size:51.14827728px;line-height:10;font-family:sans-serif;-inkscape-font-specification:'sans-serif Bold Italic';fill:#ff0000;fill-opacity:0.2670157;stroke-width:0.82836848px">SAMPLE</tspan></text>
    <g
       id="g847"
       transform="matrix(0.94853353,0,0,0.94853353,5.4039791,39.229717)">
      <text
         id="text4144-4-3-2"
         y="219.68784"
         x="16.624233"
         style="font-style:normal;font-weight:normal;font-size:9.80199528px;line-height:0%;font-family:sans-serif;letter-spacing:0px;word-spacing:0px;fill:#000000;fill-opacity:1;stroke:none;stroke-width:0.81683296px;stroke-linecap:butt;stroke-linejoin:miter;stroke-opacity:1"
         xml:space="preserve"><tspan
           style="font-style:normal;font-variant:normal;font-weight:normal;font-stretch:normal;font-size:39.16528702px;line-height:10;font-family:Gotham;-inkscape-font-specification:Gotham;letter-spacing:0.88399738px;stroke-width:0.81683296px"
           y="219.68784"
           x="16.624233"
           id="tspan4146-7-2-4"
           sodipodi:role="line">DEJCOM</tspan></text>
      <text
         id="text4148-6-8-9"
         y="256.82538"
         x="14.671666"
         style="font-style:normal;font-weight:normal;font-size:10.11058617px;line-height:0%;font-family:sans-serif;letter-spacing:0px;word-spacing:0px;fill:#000000;fill-opacity:1;stroke:none;stroke-width:0.84254885px;stroke-linecap:butt;stroke-linejoin:miter;stroke-opacity:1"
         xml:space="preserve"><tspan
           style="font-style:normal;font-variant:normal;font-weight:normal;font-stretch:normal;font-size:34.67737961px;line-height:10;font-family:Gotham;-inkscape-font-specification:Gotham;letter-spacing:0.9118278px;stroke-width:0.84254885px"
           y="256.82538"
           x="14.671666"
           id="tspan4150-8-5-4"
           sodipodi:role="line">SERVICES</tspan></text>
      <path
         inkscape:connector-curvature="0"
         id="path1829"
         d="m 16.93155,227.07441 c 175.75892,0 176.1369,0 176.1369,0"
         style="fill:none;stroke:#000000;stroke-width:0.26458332px;stroke-linecap:butt;stroke-linejoin:miter;stroke-opacity:1" />
    </g>
    <path
       style="font-style:normal;font-weight:normal;font-size:20.50918388px;line-height:0%;font-family:sans-serif;letter-spacing:0px;word-spacing:0px;fill:#00aae4;fill-opacity:1;stroke:none;stroke-width:6.45958567px;stroke-linecap:butt;stroke-linejoin:miter;stroke-opacity:1"
       d="M 527.43359 52.037109 C 466.57436 52.037109 419.83309 69.602125 389.39062 101.15625 C 422.07063 129.3533 439.35742 171.25945 439.35742 223.53906 L 439.35742 310.74414 C 439.35742 362.77886 422.03128 404.7305 389.28125 433.00977 C 419.72106 464.63589 466.50079 482.24609 527.43359 482.24609 C 616.96345 482.24609 672.77417 445.61848 697.19141 380.50586 C 703.00503 363.64634 698.93502 354.92691 681.49414 349.11328 L 619.28906 327.02148 C 601.84818 320.62649 594.87088 324.69651 587.89453 342.71875 C 578.59273 367.71735 559.9899 380.50586 527.43359 380.50586 C 481.50594 380.50586 463.48242 360.74031 463.48242 320.04492 L 463.48242 214.23633 C 463.48242 173.54094 481.50594 153.77539 527.43359 153.77539 C 559.9899 153.77539 577.43 165.40313 587.89453 191.56445 C 594.28952 209.5867 601.26682 212.49203 619.28906 207.25977 L 681.49414 185.16797 C 698.93502 179.35434 703.00503 170.63491 697.19141 153.77539 C 672.77417 88.662769 616.96345 52.037109 527.43359 52.037109 z M 389.28125 433.00977 C 362.50681 405.19186 348.37305 366.52912 348.37305 319.46289 L 348.37305 214.81836 C 348.37305 167.68752 362.54468 128.98252 389.39062 101.15625 C 359.20069 75.107688 315.87509 60.757812 260.87891 60.757812 L 119.02539 60.757812 C 100.42178 60.757812 94.027344 67.151567 94.027344 85.173828 L 94.027344 209.5625 L 209.13672 209.5625 L 209.13672 162.49609 L 256.80859 162.49609 C 303.89897 162.49609 324.24609 184.00645 324.24609 225.2832 L 324.24609 309 C 324.24609 350.27675 303.89897 371.78711 256.80859 371.78711 L 209.13672 371.78711 L 209.13672 324.91016 L 94.027344 324.91016 L 94.027344 449.10742 C 94.027344 467.12965 100.42178 473.52539 119.02539 473.52539 L 260.87891 473.52539 C 315.80945 473.52539 359.09601 459.07437 389.28125 433.00977 z "
       transform="matrix(0.26458333,0,0,0.26458333,0,87)"
       id="text4136" />
    <path
       style="fill:#00aae4;fill-opacity:1;stroke-width:0.02122554"
       d="m 103.96104,185.21845 c -1.19582,-0.0746 -2.30605,-0.7773 -2.90622,-1.83944 -0.50064,-0.88601 -0.60936,-2.02646 -0.28775,-3.01841 0.0896,-0.27608 0.33159,-0.75671 0.49597,-0.98467 0.43499,-0.60334 1.05134,-1.06829 1.72163,-1.29876 0.0933,-0.0322 0.18174,-0.0676 0.19634,-0.0788 0.0207,-0.0158 0.0264,-0.26623 0.0262,-1.12676 l -4.6e-4,-1.10643 -0.059,-0.10613 c -0.0324,-0.0583 -1.54836,-2.68503 -3.368642,-5.83703 -2.068091,-3.5811 -3.329698,-5.78663 -3.363187,-5.87947 l -0.05359,-0.14858 -0.0059,-3.74795 -0.0059,-3.74793 -0.174604,-0.068 c -1.145172,-0.4458 -1.974166,-1.45164 -2.227109,-2.70222 -0.06592,-0.32591 -0.07089,-1.0772 -0.0094,-1.40797 0.153165,-0.82269 0.613417,-1.62947 1.216982,-2.13325 0.986083,-0.82305 2.28412,-1.07931 3.484836,-0.68796 0.466612,0.15207 0.959322,0.4404 1.326472,0.77626 1.326412,1.2133 1.563812,3.30158 0.547542,4.81649 -0.42816,0.63821 -1.075032,1.13755 -1.8024,1.39128 l -0.175058,0.0611 -5.8e-5,3.48707 -6.9e-5,3.48708 2.318885,4.02056 c 1.2754,2.2113 2.32607,4.02097 2.33482,4.02147 0.008,4.5e-4 0.0159,-7.39191 0.0159,-16.42756 l 1e-5,-16.42845 -1.85648,-0.006 -1.856482,-0.006 2.408432,-4.16985 c 1.32464,-2.29341 2.41556,-4.17697 2.42426,-4.18567 0.008,-0.008 1.10237,1.86773 2.43037,4.16985 l 2.41451,4.18567 -1.8998,0.006 -1.89981,0.006 v 12.81374 c 0,7.36933 0.008,12.80518 0.0186,12.79358 0.0104,-0.0104 0.89856,-1.54496 1.97397,-3.40857 l 1.95532,-3.38841 v -3.2711 -3.2711 h -1.20985 -1.20986 v -3.57651 -3.57651 h 3.39608 3.39609 v 3.57651 3.57651 h -1.0931 -1.09312 l -3.1e-4,3.46506 c -3e-4,3.73597 0.005,3.60077 -0.10879,3.82127 -0.0658,0.12932 -5.98339,10.38001 -6.00608,10.40409 -0.0104,0.0122 -0.0189,2.01502 -0.0189,4.80293 0,4.53606 10e-4,4.78346 0.0372,4.79547 0.0204,0.007 0.12404,0.0491 0.23027,0.0937 1.14967,0.48149 1.97266,1.55135 2.16255,2.81117 0.0409,0.27126 0.0412,0.86532 7.6e-4,1.14595 -0.14631,1.01373 -0.72815,1.94097 -1.57015,2.50225 -0.66872,0.44577 -1.45652,0.65536 -2.2721,0.60449 z"
       id="path1377"
       inkscape:connector-curvature="0" />
  </g>
</svg>
