<?xml version="1.0" encoding="UTF-8" standalone="no"?>
<!-- Created with Inkscape (http://www.inkscape.org/) -->

<svg
   xmlns:dc="http://purl.org/dc/elements/1.1/"
   xmlns:cc="http://creativecommons.org/ns#"
   xmlns:rdf="http://www.w3.org/1999/02/22-rdf-syntax-ns#"
   xmlns:svg="http://www.w3.org/2000/svg"
   xmlns="http://www.w3.org/2000/svg"
   xmlns:sodipodi="http://sodipodi.sourceforge.net/DTD/sodipodi-0.dtd"
   xmlns:inkscape="http://www.inkscape.org/namespaces/inkscape"
   width="210mm"
   height="210mm"
   viewBox="0 0 210 210"
   version="1.1"
   id="svg925"
   inkscape:version="0.92.3 (unknown)"
   sodipodi:docname="final_logo.svg"
   inkscape:export-filename="/home/netpro/Documents/g-designs/dej-com/final_logo_power_circled.png"
   inkscape:export-xdpi="300.00882"
   inkscape:export-ydpi="300.00882">
  <defs
     id="defs919">
    <marker
       inkscape:stockid="Arrow2Mend"
       orient="auto"
       refY="0.0"
       refX="0.0"
       id="Arrow2Mend"
       style="overflow:visible;"
       inkscape:isstock="true">
      <path
         id="path973"
         style="fill-rule:evenodd;stroke-width:0.625;stroke-linejoin:round;stroke:#000000;stroke-opacity:1;fill:#000000;fill-opacity:1"
         d="M 8.7185878,4.0337352 L -2.2072895,0.016013256 L 8.7185884,-4.0017078 C 6.9730900,-1.6296469 6.9831476,1.6157441 8.7185878,4.0337352 z "
         transform="scale(0.6) rotate(180) translate(0,0)" />
    </marker>
    <marker
       inkscape:stockid="Arrow1Send"
       orient="auto"
       refY="0.0"
       refX="0.0"
       id="Arrow1Send"
       style="overflow:visible;"
       inkscape:isstock="true">
      <path
         id="path961"
         d="M 0.0,0.0 L 5.0,-5.0 L -12.5,0.0 L 5.0,5.0 L 0.0,0.0 z "
         style="fill-rule:evenodd;stroke:#000000;stroke-width:1pt;stroke-opacity:1;fill:#000000;fill-opacity:1"
         transform="scale(0.2) rotate(180) translate(6,0)" />
    </marker>
    <marker
       inkscape:stockid="Arrow2Mstart"
       orient="auto"
       refY="0.0"
       refX="0.0"
       id="Arrow2Mstart"
       style="overflow:visible"
       inkscape:isstock="true">
      <path
         id="path970"
         style="fill-rule:evenodd;stroke-width:0.625;stroke-linejoin:round;stroke:#000000;stroke-opacity:1;fill:#000000;fill-opacity:1"
         d="M 8.7185878,4.0337352 L -2.2072895,0.016013256 L 8.7185884,-4.0017078 C 6.9730900,-1.6296469 6.9831476,1.6157441 8.7185878,4.0337352 z "
         transform="scale(0.6) translate(0,0)" />
    </marker>
    <marker
       inkscape:stockid="Arrow1Sstart"
       orient="auto"
       refY="0.0"
       refX="0.0"
       id="Arrow1Sstart"
       style="overflow:visible"
       inkscape:isstock="true">
      <path
         id="path958"
         d="M 0.0,0.0 L 5.0,-5.0 L -12.5,0.0 L 5.0,5.0 L 0.0,0.0 z "
         style="fill-rule:evenodd;stroke:#000000;stroke-width:1pt;stroke-opacity:1;fill:#000000;fill-opacity:1"
         transform="scale(0.2) translate(6,0)" />
    </marker>
  </defs>
  <sodipodi:namedview
     id="base"
     pagecolor="#ffffff"
     bordercolor="#666666"
     borderopacity="1.0"
     inkscape:pageopacity="0.0"
     inkscape:pageshadow="2"
     inkscape:zoom="0.65837394"
     inkscape:cx="323.52142"
     inkscape:cy="526.43042"
     inkscape:document-units="mm"
     inkscape:current-layer="layer1"
     showgrid="false"
     inkscape:window-width="1280"
     inkscape:window-height="965"
     inkscape:window-x="0"
     inkscape:window-y="0"
     inkscape:window-maximized="1" />
  <metadata
     id="metadata922">
    <rdf:RDF>
      <cc:Work
         rdf:about="">
        <dc:format>image/svg+xml</dc:format>
        <dc:type
           rdf:resource="http://purl.org/dc/dcmitype/StillImage" />
        <dc:title />
      </cc:Work>
    </rdf:RDF>
  </metadata>
  <g
     inkscape:label="Layer 1"
     inkscape:groupmode="layer"
     id="layer1"
     transform="translate(0,-87)">
    <rect
       style="fill:#ffffff;fill-opacity:1;stroke:none;stroke-width:15.46041393;stroke-miterlimit:4;stroke-dasharray:none;stroke-opacity:1"
       id="rect1837"
       width="209.76564"
       height="209.80954"
       x="0.022928083"
       y="87.068626" />
    <rect
       style="fill:none;fill-opacity:1;stroke:#00aae4;stroke-width:2.68381333;stroke-miterlimit:4;stroke-dasharray:none;stroke-opacity:1"
       id="rect1843"
       width="201.51076"
       height="201.00554"
       x="4.2446213"
       y="91.497231" />
    <g
       id="g847"
       transform="matrix(0.94853353,0,0,0.94853353,5.4039791,39.229717)">
      <text
         id="text4144-4-3-2"
         y="219.68784"
         x="16.624233"
         style="font-style:normal;font-weight:normal;font-size:9.80199528px;line-height:0%;font-family:sans-serif;letter-spacing:0px;word-spacing:0px;fill:#000000;fill-opacity:1;stroke:none;stroke-width:0.81683296px;stroke-linecap:butt;stroke-linejoin:miter;stroke-opacity:1"
         xml:space="preserve"><tspan
           style="font-style:normal;font-variant:normal;font-weight:normal;font-stretch:normal;font-size:39.16528702px;line-height:10;font-family:Gotham;-inkscape-font-specification:Gotham;letter-spacing:0.88399738px;stroke-width:0.81683296px"
           y="219.68784"
           x="16.624233"
           id="tspan4146-7-2-4"
           sodipodi:role="line">DEJCOM</tspan></text>
      <text
         id="text4148-6-8-9"
         y="256.82538"
         x="14.671666"
         style="font-style:normal;font-weight:normal;font-size:10.11058617px;line-height:0%;font-family:sans-serif;letter-spacing:0px;word-spacing:0px;fill:#000000;fill-opacity:1;stroke:none;stroke-width:0.84254885px;stroke-linecap:butt;stroke-linejoin:miter;stroke-opacity:1"
         xml:space="preserve"><tspan
           style="font-style:normal;font-variant:normal;font-weight:normal;font-stretch:normal;font-size:34.67737961px;line-height:10;font-family:Gotham;-inkscape-font-specification:Gotham;letter-spacing:0.9118278px;stroke-width:0.84254885px"
           y="256.82538"
           x="14.671666"
           id="tspan4150-8-5-4"
           sodipodi:role="line">SERVICES</tspan></text>
      <path
         inkscape:connector-curvature="0"
         id="path1829"
         d="m 16.93155,227.07441 c 175.75892,0 176.1369,0 176.1369,0"
         style="fill:none;stroke:#000000;stroke-width:0.26458332px;stroke-linecap:butt;stroke-linejoin:miter;stroke-opacity:1" />
    </g>
    <g
       id="g1782">
      <path
         inkscape:connector-curvature="0"
         id="text4136"
         d="m 31.492134,103.0755 c -4.922205,0 -6.614066,1.69169 -6.614066,6.46008 v 32.91116 H 55.33409 v -12.45298 h 12.613182 c 12.459329,0 17.842838,5.69128 17.842838,16.61242 v 22.15007 c 0,10.92114 -5.383509,16.61242 -17.842838,16.61242 H 55.33409 V 172.96581 H 24.878068 v 32.86053 c 0,4.76838 1.691861,6.46058 6.614066,6.46058 h 37.532077 c 30.302318,0 47.222439,-16.61235 47.222439,-43.0692 v -23.07301 c 0,-26.61067 -16.920121,-43.06921 -47.222439,-43.06921 z"
         style="font-style:normal;font-weight:normal;font-size:20.50918388px;line-height:0%;font-family:sans-serif;letter-spacing:0px;word-spacing:0px;fill:#00aae4;fill-opacity:1;stroke:none;stroke-width:1.7090987px;stroke-linecap:butt;stroke-linejoin:miter;stroke-opacity:1" />
      <text
         id="text4140"
         y="212.28677"
         x="87.097809"
         style="font-style:normal;font-weight:normal;font-size:20.50918388px;line-height:0%;font-family:sans-serif;letter-spacing:0px;word-spacing:0px;fill:#00aae4;fill-opacity:1;stroke:none;stroke-width:1.7090987px;stroke-linecap:butt;stroke-linejoin:miter;stroke-opacity:1"
         xml:space="preserve"><tspan
           style="font-style:normal;font-variant:normal;font-weight:normal;font-stretch:normal;font-size:153.81887817px;line-height:10;font-family:Panton;-inkscape-font-specification:Panton;fill:#00aae4;fill-opacity:1;stroke-width:1.7090987px"
           y="212.28677"
           x="87.097809"
           id="tspan4142"
           sodipodi:role="line">C</tspan></text>
    </g>
    <text
       xml:space="preserve"
       style="font-style:normal;font-weight:normal;font-size:9.9404211px;line-height:0%;font-family:sans-serif;letter-spacing:0px;word-spacing:0px;fill:#ff0000;fill-opacity:0.2670157;stroke:none;stroke-width:0.82836848px;stroke-linecap:butt;stroke-linejoin:miter;stroke-opacity:1"
       x="-155.69347"
       y="227.82481"
       id="text4501-9-3-6"
       transform="rotate(-39.457474)"><tspan
         sodipodi:role="line"
         id="tspan4503-9-8-1"
         x="-155.69347"
         y="227.82481"
         style="font-style:italic;font-variant:normal;font-weight:bold;font-stretch:normal;font-size:51.14827728px;line-height:10;font-family:sans-serif;-inkscape-font-specification:'sans-serif Bold Italic';fill:#ff0000;fill-opacity:0.2670157;stroke-width:0.82836848px">SAMPLE</tspan></text>
    <path
       style="fill:#ffffff;stroke-width:0.08782357"
       d="m 93.540033,173.49408 c 0.264938,-0.53133 2.224805,-4.34138 4.355259,-8.46677 2.130448,-4.12539 3.873548,-7.53404 3.873548,-7.57478 0,-0.0407 -1.26888,-0.0741 -2.819742,-0.0741 -2.649342,0 -2.816194,-0.009 -2.760911,-0.15369 0.0888,-0.23192 8.395953,-16.03955 8.469453,-16.11646 0.0351,-0.0367 2.00777,-0.0565 4.38379,-0.0439 l 4.32004,0.0228 -3.77635,5.66462 -3.77635,5.66463 3.69564,0.0439 3.69563,0.0439 -9.85165,10.75839 c -5.418408,5.91711 -9.950294,10.85718 -10.070859,10.97794 -0.170105,0.17039 -0.11131,0.003 0.262502,-0.7465 z m 9.194867,-0.2287 c -1.67714,-0.14638 -3.890862,-0.74448 -5.198354,-1.4045 l -0.523847,-0.26444 0.373061,-0.41244 c 0.20518,-0.22685 0.586178,-0.63935 0.846658,-0.91668 l 0.4736,-0.50423 1.158166,0.39031 c 1.619076,0.54565 2.527936,0.69426 4.231986,0.69199 1.66373,-0.002 2.62004,-0.15232 4.09366,-0.64258 2.02689,-0.67432 3.5456,-1.6175 5.08788,-3.15979 2.19708,-2.19708 3.43102,-4.77778 3.78119,-7.90809 0.34187,-3.05618 -0.62479,-6.54808 -2.50555,-9.05082 -0.70626,-0.93983 -2.07703,-2.27107 -3.01459,-2.92767 -0.44952,-0.3148 -0.70213,-0.54654 -0.66481,-0.60987 0.4746,-0.80517 1.28553,-1.89658 1.3717,-1.84613 1.03346,0.60497 2.51861,1.85423 3.40366,2.86303 4.15894,4.74049 5.09243,11.31959 2.40197,16.92869 -1.81366,3.78114 -5.08661,6.69294 -8.99002,7.99803 -1.33582,0.44663 -2.46975,0.67467 -3.89564,0.78344 -1.26515,0.0965 -1.22879,0.0966 -2.43072,-0.008 z m -8.964201,-3.89696 c -2.379555,-2.12047 -4.067407,-4.99988 -4.771786,-8.14047 -1.090233,-4.861 0.206339,-9.85997 3.544123,-13.66448 2.205411,-2.5138 5.531711,-4.3754 8.823464,-4.93815 1.65788,-0.28343 1.58177,-0.39198 0.79013,1.12686 l -0.67952,1.30372 -0.82253,0.2312 c -5.1104,1.43637 -8.78495,5.66015 -9.479085,10.89589 -0.511245,3.8562 0.785894,7.8046 3.494914,10.63829 l 0.783153,0.81919 -0.559105,1.11556 -0.559106,1.11556 z"
       id="path3481"
       inkscape:connector-curvature="0" />
  </g>
</svg>
