<?xml version="1.0" encoding="UTF-8" standalone="no"?>
<!-- Created with Inkscape (http://www.inkscape.org/) -->

<svg
   xmlns:dc="http://purl.org/dc/elements/1.1/"
   xmlns:cc="http://creativecommons.org/ns#"
   xmlns:rdf="http://www.w3.org/1999/02/22-rdf-syntax-ns#"
   xmlns:svg="http://www.w3.org/2000/svg"
   xmlns="http://www.w3.org/2000/svg"
   xmlns:sodipodi="http://sodipodi.sourceforge.net/DTD/sodipodi-0.dtd"
   xmlns:inkscape="http://www.inkscape.org/namespaces/inkscape"
   width="210mm"
   height="210mm"
   viewBox="0 0 210 210"
   version="1.1"
   id="svg925"
   inkscape:version="0.92.3 (unknown)"
   sodipodi:docname="final_logo.svg"
   inkscape:export-filename="/home/netpro/Documents/g-designs/dej-com/final_logo_power_on.png"
   inkscape:export-xdpi="300.00882"
   inkscape:export-ydpi="300.00882">
  <defs
     id="defs919">
    <marker
       inkscape:stockid="Arrow2Mend"
       orient="auto"
       refY="0.0"
       refX="0.0"
       id="Arrow2Mend"
       style="overflow:visible;"
       inkscape:isstock="true">
      <path
         id="path973"
         style="fill-rule:evenodd;stroke-width:0.625;stroke-linejoin:round;stroke:#000000;stroke-opacity:1;fill:#000000;fill-opacity:1"
         d="M 8.7185878,4.0337352 L -2.2072895,0.016013256 L 8.7185884,-4.0017078 C 6.9730900,-1.6296469 6.9831476,1.6157441 8.7185878,4.0337352 z "
         transform="scale(0.6) rotate(180) translate(0,0)" />
    </marker>
    <marker
       inkscape:stockid="Arrow1Send"
       orient="auto"
       refY="0.0"
       refX="0.0"
       id="Arrow1Send"
       style="overflow:visible;"
       inkscape:isstock="true">
      <path
         id="path961"
         d="M 0.0,0.0 L 5.0,-5.0 L -12.5,0.0 L 5.0,5.0 L 0.0,0.0 z "
         style="fill-rule:evenodd;stroke:#000000;stroke-width:1pt;stroke-opacity:1;fill:#000000;fill-opacity:1"
         transform="scale(0.2) rotate(180) translate(6,0)" />
    </marker>
    <marker
       inkscape:stockid="Arrow2Mstart"
       orient="auto"
       refY="0.0"
       refX="0.0"
       id="Arrow2Mstart"
       style="overflow:visible"
       inkscape:isstock="true">
      <path
         id="path970"
         style="fill-rule:evenodd;stroke-width:0.625;stroke-linejoin:round;stroke:#000000;stroke-opacity:1;fill:#000000;fill-opacity:1"
         d="M 8.7185878,4.0337352 L -2.2072895,0.016013256 L 8.7185884,-4.0017078 C 6.9730900,-1.6296469 6.9831476,1.6157441 8.7185878,4.0337352 z "
         transform="scale(0.6) translate(0,0)" />
    </marker>
    <marker
       inkscape:stockid="Arrow1Sstart"
       orient="auto"
       refY="0.0"
       refX="0.0"
       id="Arrow1Sstart"
       style="overflow:visible"
       inkscape:isstock="true">
      <path
         id="path958"
         d="M 0.0,0.0 L 5.0,-5.0 L -12.5,0.0 L 5.0,5.0 L 0.0,0.0 z "
         style="fill-rule:evenodd;stroke:#000000;stroke-width:1pt;stroke-opacity:1;fill:#000000;fill-opacity:1"
         transform="scale(0.2) translate(6,0)" />
    </marker>
  </defs>
  <sodipodi:namedview
     id="base"
     pagecolor="#ffffff"
     bordercolor="#666666"
     borderopacity="1.0"
     inkscape:pageopacity="0.0"
     inkscape:pageshadow="2"
     inkscape:zoom="0.65837394"
     inkscape:cx="544.24724"
     inkscape:cy="424.16832"
     inkscape:document-units="mm"
     inkscape:current-layer="layer1"
     showgrid="false"
     inkscape:window-width="1280"
     inkscape:window-height="965"
     inkscape:window-x="0"
     inkscape:window-y="0"
     inkscape:window-maximized="1" />
  <metadata
     id="metadata922">
    <rdf:RDF>
      <cc:Work
         rdf:about="">
        <dc:format>image/svg+xml</dc:format>
        <dc:type
           rdf:resource="http://purl.org/dc/dcmitype/StillImage" />
        <dc:title />
      </cc:Work>
    </rdf:RDF>
  </metadata>
  <g
     inkscape:label="Layer 1"
     inkscape:groupmode="layer"
     id="layer1"
     transform="translate(0,-87)">
    <rect
       style="fill:#ffffff;fill-opacity:1;stroke:none;stroke-width:15.46041393;stroke-miterlimit:4;stroke-dasharray:none;stroke-opacity:1"
       id="rect1837"
       width="209.76564"
       height="209.80954"
       x="0.022928083"
       y="87.068626" />
    <rect
       style="fill:none;fill-opacity:1;stroke:#00aae4;stroke-width:2.68381333;stroke-miterlimit:4;stroke-dasharray:none;stroke-opacity:1"
       id="rect1843"
       width="201.51076"
       height="201.00554"
       x="4.2446213"
       y="91.497231" />
    <text
       xml:space="preserve"
       style="font-style:normal;font-weight:normal;font-size:9.9404211px;line-height:0%;font-family:sans-serif;letter-spacing:0px;word-spacing:0px;fill:#ff0000;fill-opacity:0.2670157;stroke:none;stroke-width:0.82836848px;stroke-linecap:butt;stroke-linejoin:miter;stroke-opacity:1"
       x="-157.43274"
       y="231.64943"
       id="text4501-9-3-6"
       transform="rotate(-39.457474)"><tspan
         sodipodi:role="line"
         id="tspan4503-9-8-1"
         x="-157.43274"
         y="231.64943"
         style="font-style:italic;font-variant:normal;font-weight:bold;font-stretch:normal;font-size:51.14827728px;line-height:10;font-family:sans-serif;-inkscape-font-specification:'sans-serif Bold Italic';fill:#ff0000;fill-opacity:0.2670157;stroke-width:0.82836848px">SAMPLE</tspan></text>
    <g
       id="g847"
       transform="matrix(0.94853353,0,0,0.94853353,5.4039791,39.229717)">
      <text
         id="text4144-4-3-2"
         y="219.68784"
         x="16.624233"
         style="font-style:normal;font-weight:normal;font-size:9.80199528px;line-height:0%;font-family:sans-serif;letter-spacing:0px;word-spacing:0px;fill:#000000;fill-opacity:1;stroke:none;stroke-width:0.81683296px;stroke-linecap:butt;stroke-linejoin:miter;stroke-opacity:1"
         xml:space="preserve"><tspan
           style="font-style:normal;font-variant:normal;font-weight:normal;font-stretch:normal;font-size:39.16528702px;line-height:10;font-family:Gotham;-inkscape-font-specification:Gotham;letter-spacing:0.88399738px;stroke-width:0.81683296px"
           y="219.68784"
           x="16.624233"
           id="tspan4146-7-2-4"
           sodipodi:role="line">DEJCOM</tspan></text>
      <text
         id="text4148-6-8-9"
         y="256.82538"
         x="14.671666"
         style="font-style:normal;font-weight:normal;font-size:10.11058617px;line-height:0%;font-family:sans-serif;letter-spacing:0px;word-spacing:0px;fill:#000000;fill-opacity:1;stroke:none;stroke-width:0.84254885px;stroke-linecap:butt;stroke-linejoin:miter;stroke-opacity:1"
         xml:space="preserve"><tspan
           style="font-style:normal;font-variant:normal;font-weight:normal;font-stretch:normal;font-size:34.67737961px;line-height:10;font-family:Gotham;-inkscape-font-specification:Gotham;letter-spacing:0.9118278px;stroke-width:0.84254885px"
           y="256.82538"
           x="14.671666"
           id="tspan4150-8-5-4"
           sodipodi:role="line">SERVICES</tspan></text>
      <path
         inkscape:connector-curvature="0"
         id="path1829"
         d="m 16.93155,227.07441 c 175.75892,0 176.1369,0 176.1369,0"
         style="fill:none;stroke:#000000;stroke-width:0.26458332px;stroke-linecap:butt;stroke-linejoin:miter;stroke-opacity:1" />
    </g>
    <path
       style="font-style:normal;font-weight:normal;font-size:20.50918388px;line-height:0%;font-family:sans-serif;letter-spacing:0px;word-spacing:0px;fill:#00aae4;fill-opacity:1;stroke:none;stroke-width:6.45958567px;stroke-linecap:butt;stroke-linejoin:miter;stroke-opacity:1"
       d="M 527.43359 52.037109 C 466.57436 52.037109 419.83309 69.602125 389.39062 101.15625 C 422.07063 129.3533 439.35742 171.25945 439.35742 223.53906 L 439.35742 310.74414 C 439.35742 362.77886 422.03128 404.7305 389.28125 433.00977 C 419.72106 464.63589 466.50079 482.24609 527.43359 482.24609 C 616.96345 482.24609 672.77417 445.61848 697.19141 380.50586 C 703.00503 363.64634 698.93502 354.92691 681.49414 349.11328 L 619.28906 327.02148 C 601.84818 320.62649 594.87088 324.69651 587.89453 342.71875 C 578.59273 367.71735 559.9899 380.50586 527.43359 380.50586 C 481.50594 380.50586 463.48242 360.74031 463.48242 320.04492 L 463.48242 214.23633 C 463.48242 173.54094 481.50594 153.77539 527.43359 153.77539 C 559.9899 153.77539 577.43 165.40313 587.89453 191.56445 C 594.28952 209.5867 601.26682 212.49203 619.28906 207.25977 L 681.49414 185.16797 C 698.93502 179.35434 703.00503 170.63491 697.19141 153.77539 C 672.77417 88.662769 616.96345 52.037109 527.43359 52.037109 z M 389.28125 433.00977 C 362.50681 405.19186 348.37305 366.52912 348.37305 319.46289 L 348.37305 214.81836 C 348.37305 167.68752 362.54468 128.98252 389.39062 101.15625 C 359.20069 75.107688 315.87509 60.757812 260.87891 60.757812 L 119.02539 60.757812 C 100.42178 60.757812 94.027344 67.151567 94.027344 85.173828 L 94.027344 209.5625 L 209.13672 209.5625 L 209.13672 162.49609 L 256.80859 162.49609 C 303.89897 162.49609 324.24609 184.00645 324.24609 225.2832 L 324.24609 309 C 324.24609 350.27675 303.89897 371.78711 256.80859 371.78711 L 209.13672 371.78711 L 209.13672 324.91016 L 94.027344 324.91016 L 94.027344 449.10742 C 94.027344 467.12965 100.42178 473.52539 119.02539 473.52539 L 260.87891 473.52539 C 315.80945 473.52539 359.09601 459.07437 389.28125 433.00977 z "
       transform="matrix(0.26458333,0,0,0.26458333,0,87)"
       id="text4136" />
    <path
       style="fill:#00aae4;stroke-width:0.01604479;fill-opacity:1"
       d="m 103.63232,168.58301 c -0.82845,-0.0447 -1.70301,-0.19956 -2.49296,-0.44157 -2.730328,-0.83645 -5.023376,-2.77955 -6.305003,-5.34278 -1.462882,-2.92574 -1.460071,-6.39234 0.0075,-9.31818 0.661036,-1.31783 1.532814,-2.42216 2.651764,-3.35916 0.242257,-0.20286 0.664853,-0.52548 0.674515,-0.51493 0.02256,0.0246 1.022985,1.44762 1.029296,1.46405 0.005,0.0132 -0.0593,0.0712 -0.169451,0.15308 -0.324692,0.24109 -0.566676,0.45318 -0.924813,0.81051 -0.364354,0.36353 -0.570329,0.59933 -0.84169,0.96356 -0.675026,0.90604 -1.17629,1.96614 -1.449068,3.06456 -0.175966,0.70859 -0.250421,1.32382 -0.250577,2.07058 -1.82e-4,0.77152 0.07027,1.36136 0.249571,2.08991 0.70075,2.84743 2.854808,5.17777 5.646806,6.10892 0.81586,0.2721 1.54681,0.40531 2.41108,0.43942 2.83131,0.11169 5.52241,-1.17314 7.23968,-3.45659 1.59234,-2.1173 2.12045,-4.86073 1.42849,-7.42071 -0.49912,-1.84653 -1.64172,-3.5313 -3.16113,-4.66109 -0.0927,-0.0689 -0.17475,-0.13077 -0.18242,-0.13751 -0.0119,-0.0106 0.99809,-1.46149 1.03171,-1.48227 0.0127,-0.008 0.3389,0.23229 0.55505,0.40842 1.14561,0.93354 2.08609,2.10221 2.7503,3.4176 1.24124,2.45812 1.46287,5.30811 0.6156,7.91584 -0.41797,1.28642 -1.04988,2.43068 -1.91737,3.47205 -2.12112,2.5462 -5.29766,3.93415 -8.59692,3.75629 z m -0.33694,-16.14698 v -5.67183 h 0.90653 0.90655 v 5.67183 5.67183 h -0.90655 -0.90653 z"
       id="path1585"
       inkscape:connector-curvature="0" />
  </g>
</svg>
